<svg viewBox="0 0 375 177.4" xmlns="http://www.w3.org/2000/svg"><g fill="#bc8b2c"><path d="m266.65 177.4-48.03-67.99-8.65 6.11 43.71 61.88z"/><path d="M197.73 122.25c.1-1 .15-2 .15-3a22.93 22.93 0 0 0 13.51-4.63c.5.89 1 1.81 1.41 2.75a25.86 25.86 0 0 1-15.07 4.88z"/><path d="M203.2 125.22c-.09-1-.17-2-.26-3a21.28 21.28 0 0 0 12.1-5.16l2 2.25a24.21 24.21 0 0 1-13.84 5.91zm7.87 9.06-2.35-1.84a45.21 45.21 0 0 1 10.34-9.57l1.66 2.48a42.23 42.23 0 0 0-9.65 8.93zm3.16 5.22c-.3-.95-.59-1.9-.89-2.85a21.26 21.26 0 0 0 10.75-7.59l2.39 1.79a24.33 24.33 0 0 1-12.25 8.65zm4.29 6.1-2.39-1.78a24.25 24.25 0 0 1 12.25-8.66l.88 2.85a21.34 21.34 0 0 0-10.74 7.59zm5.05 6.74-2.12-2.11a88.16 88.16 0 0 1 10.35-8.86l1.76 2.42a83 83 0 0 0-9.99 8.55zm4.13 5.38c-.3-.95-.59-1.9-.89-2.85a21.26 21.26 0 0 0 10.75-7.59l2.39 1.79a24.33 24.33 0 0 1-12.25 8.65zm.95 4.06c0-1 0-2 .07-3a17.17 17.17 0 0 0 12.28-4.73l2.06 2.16a20.12 20.12 0 0 1-14.41 5.57zm8.95 9.71-2.89-.74a17.45 17.45 0 0 1 10.47-11.91l1.11 2.77a14.52 14.52 0 0 0-8.69 9.88zm2.7 3.51c-.12-1-.23-2-.35-3a21.85 21.85 0 0 0 12.27-5.61l2.07 2.26A24.91 24.91 0 0 1 240.3 175zm11.6 2.4c1.25-.83 2.5-1.65 3.79-2.41l-1.53-2.57a88.27 88.27 0 0 0-7.43 5z"/></g><path d="M375 177.4V0L218.45 109.53l47.94 67.87z" fill="#05a357"/><path d="M355.02 177.4 375 163.42V31.34l-141.73 99.17 33.12 46.89z" fill="#fff"/><path d="M344.43 177.4 375 156.01V38.75l-138.23 96.72 29.62 41.93z" fill="#174291"/><path d="M334.03 177.4 375 148.73V46.03l-134.79 94.31 26.18 37.06z" fill="#5b91f4"/><path d="M315.03 177.4 375 135.44V59.33l-128.5 89.9 19.89 28.17z" fill="#fff"/><path d="M301.42 177.4 375 125.91V68.85l-124 86.76 15.39 21.79z" fill="#05a357"/><path d="m269.34 177.4-48.92-69.26-8.65 6.11 44.61 63.15z" fill="#fff"/><path d="M199.19 121.13c.1-1 .15-2 .15-3a22.93 22.93 0 0 0 13.51-4.63c.5.89 1 1.81 1.41 2.75a25.86 25.86 0 0 1-15.07 4.88zm5.15 6.13c-.08-1-.17-2-.26-3a21.32 21.32 0 0 0 12.1-5.16l2 2.25a24.21 24.21 0 0 1-13.84 5.91zm7.87 9.06-2.35-1.85a45 45 0 0 1 10.35-9.56l1.65 2.48a42 42 0 0 0-9.65 8.93zm2.28 5.6c-.29-.95-.59-1.9-.88-2.85a21.28 21.28 0 0 0 10.74-7.59l2.39 1.79a24.25 24.25 0 0 1-12.25 8.65zm5.17 5.72-2.39-1.79a24.33 24.33 0 0 1 12.25-8.65l.89 2.85a21.26 21.26 0 0 0-10.75 7.59zm5.05 6.74-2.11-2.11a87.26 87.26 0 0 1 10.34-8.86l1.76 2.41a84 84 0 0 0-9.99 8.56zm2.78 5.94c-.3-.95-.59-1.9-.89-2.85a21.32 21.32 0 0 0 10.75-7.59l2.39 1.78a24.29 24.29 0 0 1-12.25 8.66zm2.3 3.5c0-1 .05-2 .08-3a17.15 17.15 0 0 0 12.26-4.74l2.06 2.16a20.16 20.16 0 0 1-14.4 5.58zm8.95 9.71-2.89-.74a17.44 17.44 0 0 1 10.48-11.91c.36.92.73 1.85 1.1 2.77a14.48 14.48 0 0 0-8.69 9.88zm2.55 3.87a24.87 24.87 0 0 0 12-6.08l-2.07-2.26a21.79 21.79 0 0 1-12.27 5.61c.1.91.21 1.82.31 2.73zm14.94 0 .6-.37-1.53-2.57a95.82 95.82 0 0 0-4.57 2.94z" fill="#fff"/><path d="M287.3 177.4h75.94L375 169V35.59l-116.24 82.54a11.05 11.05 0 0 0-2.61 15.4z" fill="#662a16"/><path d="M286.53 171.48a27.2 27.2 0 0 0 5.47 5.92h34l49-33.35V78.49l-81.31 55.33a27.11 27.11 0 0 0-7.16 37.66z" fill="#3d281e"/><path d="M279.81 118.25a20.2 20.2 0 0 0 12.39-5.64c3.83-3.9 5.78-9.3 7.49-14.37C301 94.44 302 90.58 303 86.7l-1.8 1.3c-.6 2.31-1.24 4.6-1.94 6.88-1.55 5-3.23 10.32-6.32 14.62-6 8.31-17.21 8.77-26.08 5.52-.8-.29-1.59-.61-2.37-1l-1.34.94c5.22 2.46 10.77 3.93 16.66 3.29zm80.74 47.22a106 106 0 0 0-29.76-2.87 161.33 161.33 0 0 0-28.72 3.48 84.22 84.22 0 0 0-18.46 6.12l.85 1.2a78.5 78.5 0 0 1 14.54-5.13 151.77 151.77 0 0 1 27.73-4 112.14 112.14 0 0 1 29.32 1.69 83.67 83.67 0 0 1 16.14 5.04l1.39-1a83.88 83.88 0 0 0-13.03-4.53z" fill="#c14f29"/><path d="M262.37 131.67c10.53.38 21.52-2 29.88-8.74 8.56-6.84 13.14-17.28 16.61-27.39 2-5.74 3.73-11.57 5.94-17.2l-2.2 1.56c-1 2.72-1.91 5.47-2.8 8.21-3.4 10.41-6.81 21.36-14.25 29.69s-18.24 12.06-29.17 12.43a62.78 62.78 0 0 1-12-.81 11.62 11.62 0 0 0 .44 1.53 70.7 70.7 0 0 0 7.55.72zm30.51 17.64a192.28 192.28 0 0 1 36.28-4 195.18 195.18 0 0 1 36.6 2.88q4.64.81 9.24 1.81v-1.47c-1.46-.32-2.92-.63-4.38-.92a197.81 197.81 0 0 0-36.73-3.78 195.36 195.36 0 0 0-36.76 3.17 186.91 186.91 0 0 0-26.53 6.87l.87 1.22a185.83 185.83 0 0 1 21.41-5.78zm30.78-35.07a31.53 31.53 0 0 0 9.46 2c4.34.35 8.71.48 13.06.56a285.76 285.76 0 0 0 28.82-.91v-1.43q-9.48.77-19 .92-6.52.09-13.06-.1c-3.94-.12-7.93-.21-11.85-.68a22.56 22.56 0 0 1-9-2.68 10.31 10.31 0 0 1-5.06-8.32c-.26-3.92 1-7.76 2.06-11.46s2.12-7.11 3.33-10.61a92.86 92.86 0 0 1 5.08-12.2L325.1 71c-.7 1.47-1.34 3-2 4.47-1.45 3.6-2.68 7.28-3.83 11s-2.38 7.39-3.16 11.16-1 7.6.85 11a12.8 12.8 0 0 0 6.7 5.61zM291 131.74c17.6-3.39 35.59-4.35 53.46-5.34 10.19-.57 20.39-1.08 30.57-1.73v-1.45c-8.57.55-17.16 1-25.73 1.47-17.87 1-35.84 1.81-53.53 4.74a145.52 145.52 0 0 0-35.35 10.07l.87 1.22a139 139 0 0 1 29.71-8.98z" fill="#c14f29"/><path d="M330.79 162.6a161.33 161.33 0 0 0-28.72 3.48 86.57 86.57 0 0 0-15.84 4.92l.3.46.53.75a82.26 82.26 0 0 1 12-4 151.77 151.77 0 0 1 27.73-4 126.55 126.55 0 0 1 18.37.13l1.84-1.24a121.85 121.85 0 0 0-16.21-.5zm3.1-18.74a195.36 195.36 0 0 0-36.76 3.14q-7.38 1.35-14.63 3.27c-.12.53-.23 1.05-.31 1.58 3.53-1 7.1-1.81 10.69-2.55a192.28 192.28 0 0 1 36.28-4 195.18 195.18 0 0 1 36.6 2.88c.83.14 1.66.29 2.48.45l1.68-1.15a198 198 0 0 0-36.03-3.62zM375 124.67v-1.45c-8.57.55-17.16 1-25.73 1.47-16 .87-32 1.63-47.84 3.87l-2.72 1.85c15.12-2.34 30.46-3.16 45.72-4 10.19-.58 20.39-1.09 30.57-1.74zm-41.88-8.47c4.34.35 8.71.48 13.06.56a285.76 285.76 0 0 0 28.82-.91v-1.43q-9.48.77-19 .92-6.52.09-13.06-.1c-3.94-.12-7.93-.21-11.85-.68a27.23 27.23 0 0 1-6.77-1.59l-1.4 1 .72.32a31.53 31.53 0 0 0 9.48 1.91z" fill="#662a16"/><path d="M284.77 162.84a28.54 28.54 0 0 0 39.67 7.54L375 136V98h-45.7l-37 25.17a28.56 28.56 0 0 0-7.54 39.68z" fill="#ffc043"/><path d="m310.9 173.49-5.4-1a4 4 0 0 1-3.17-4.66 4.32 4.32 0 0 0-3.43-5l-1.31-.25a4 4 0 0 1-3.17-4.66l.3-1.57a4.32 4.32 0 0 0-3.43-5l-5.46-1a4 4 0 0 1-3.17-4.66l1.69-8.92a6 6 0 0 1 2.51-3.83l15.22-10.4 24.36 41-6.4 7a9.86 9.86 0 0 1-9.14 2.95z" fill="#05a357"/><path d="m331.58 149.15.1 5.56a3.94 3.94 0 0 1-1.89 3.43l-8.7 5.29a18.19 18.19 0 0 1-18.19.41l-7.17-3.93a8.73 8.73 0 0 0-4.3-1.06l-3.61.06a3.71 3.71 0 0 1-3.77-3.64l-.09-5.33z" fill="#662a16"/><path d="M311.08 166.07a18.11 18.11 0 0 0 2.94-.15l7.69-16.61-2.89.05zM288 158.91l4.22-9.1h-2.89l-3.82 8.27a3.63 3.63 0 0 0 2.35.79zm14.46 4.69.44.24a17.32 17.32 0 0 0 1.9.9l7.07-15.26h-2.89zm-7.83-4.19a9.06 9.06 0 0 1 1.1.5l1.22.67 5.05-10.94-2.88.05zm36.92-10.26-2.88.05-6.21 13.4 3.98-2.42z" fill="#5a0a00"/><path d="M331.59 149.5v.9a2.36 2.36 0 0 1-1.14 2.06l-9.45 5.76a18.22 18.22 0 0 1-18.19.41l-7.17-3.93a8.56 8.56 0 0 0-4.29-1.06l-3.62.06a3.7 3.7 0 0 1-3.76-3.64 3.7 3.7 0 0 1 3.64-3.77l40-.66a3.93 3.93 0 0 1 3.98 3.87z" fill="#e8503d"/><path d="m341.31 148.71-2.05 6.09a4.54 4.54 0 0 1-3.38 3l-11.51 2.38a21 21 0 0 1-19.94-6.58l-6.28-7a10 10 0 0 0-4.26-2.82l-4-1.33a4.28 4.28 0 0 1-2.69-5.42l2-5.83z" fill="#662a16"/><path d="M312.47 159.18a21.36 21.36 0 0 0 3.25 1l14.79-15.09-3.16-1.09zm-22.38-16.73 8.11-8.27-3.2-1.06-7.36 7.51a4.3 4.3 0 0 0 2.25 1.77zM304 153.16l.39.44c.54.6 1.12 1.17 1.71 1.71l13.6-13.87-3.16-1.06zm-6.85-7.58a10.16 10.16 0 0 1 1 1l1.07 1.2 9.75-9.94-3.16-1.06zm44.13 3.12-3.16-1.07-11.93 12.18 5.27-1.1z" fill="#5a0a00"/><path d="m341.18 149.09-.33 1a2.73 2.73 0 0 1-2 1.8l-12.52 2.6a21 21 0 0 1-19.95-6.59l-6.28-7a10 10 0 0 0-4.26-2.81l-4-1.34a4.27 4.27 0 0 1-2.69-5.41 4.28 4.28 0 0 1 5.42-2.69l43.75 14.74a4.54 4.54 0 0 1 2.86 5.7z" fill="#e8503d"/><path d="m354.18 140-2.05 6a4.54 4.54 0 0 1-3.38 3l-11.51 2.39a21 21 0 0 1-19.94-6.59l-6.3-7.01a10.12 10.12 0 0 0-4.26-2.82l-4-1.33a4.27 4.27 0 0 1-2.69-5.41l2-5.83z" fill="#662a16"/><path d="M325.34 150.42a20.29 20.29 0 0 0 3.25 1l14.79-15.09-3.16-1.06zM303 133.7l8.11-8.28-3.16-1.06-7.36 7.51a4.26 4.26 0 0 0 2.25 1.77zm13.91 10.71.39.43a21.22 21.22 0 0 0 1.71 1.71l13.6-13.87-3.16-1.06zm-6.91-7.59a10.16 10.16 0 0 1 1 1l1.07 1.2 9.75-9.94-3.14-1.08zm44.15 3.12-3.16-1.07-11.94 12.18 5.28-1.09z" fill="#5a0a00"/><path d="m354.05 140.33-.33 1a2.71 2.71 0 0 1-2 1.8l-12.53 2.6a21 21 0 0 1-19.94-6.59l-6.28-7a9.88 9.88 0 0 0-4.26-2.82l-4-1.33a4.28 4.28 0 0 1-2.69-5.42 4.28 4.28 0 0 1 5.42-2.68l43.75 14.73a4.55 4.55 0 0 1 2.86 5.71z" fill="#e8503d"/><path d="m296.24 153.245-1.89-2.778 2.778-1.89 1.89 2.777z" fill="#ffe3ac"/><path d="m294.292 154.56-1.891-2.778 2.778-1.89 1.89 2.778z" fill="#f4f1fa"/><path d="m322.595 140.907-3.301-.627.627-3.3 3.301.626z" fill="#ffe3ac"/><path d="m322.148 143.23-3.3-.627.627-3.301 3.3.627z" fill="#f4f1fa"/><path d="m306.865 143.364 2.778-1.89 1.89 2.777-2.777 1.891z" fill="#ffe3ac"/><path d="m305.534 141.429 2.778-1.89 1.89 2.777-2.777 1.89z" fill="#f4f1fa"/><path d="M324.18 170.56 375 136V98h-.06L341 121.1a36.54 36.54 0 0 0-16 29.76 23.07 23.07 0 0 1-27.23 22.44 28 28 0 0 0 26.41-2.74z" fill="#ffe3ac"/><path d="M310.68 129.79a36.52 36.52 0 0 0 33.54-3.93l30.78-21v-38.7l-82.95 57.18a28 28 0 0 0-12.23 23.55 23.07 23.07 0 0 1 30.86-17.1z" fill="#fff2d9"/><path d="m320.06 150.84-.06-.38a2.9 2.9 0 0 0-.3-1 3.43 3.43 0 0 0-.59-.87l-.2-.21-.11.3a3.52 3.52 0 0 0-.15 1.76 3 3 0 0 0 .09.41c0 .11.07.22.11.33l.09.25a15.91 15.91 0 0 1-.8-1.6 4.81 4.81 0 0 0-1.95-2.21l-.36-.21v.53a4.69 4.69 0 0 0 0 .84 6.16 6.16 0 0 0-2-1l-.52-.15.13.68a6.19 6.19 0 0 0 1.92 3.41l.24.2a16.92 16.92 0 0 1-2.1-1 5.12 5.12 0 0 0-3.09-.65l-.45.05.31.49a5.08 5.08 0 0 0 1.09 1.22 7.94 7.94 0 0 0-1.58.46l-1.64.66a.2.2 0 0 0 0 .35l1.49 1a8.38 8.38 0 0 0 1.47.73 5.29 5.29 0 0 0-1.29 1l-.4.43.43.13a5.2 5.2 0 0 0 3.17-.08c.41-.14.82-.27 1.25-.38l5.94-5.43z" fill="#156a41"/><path d="M297.79 134.35h2.04v2.04h-2.04zm-8.97 13.68h.94v3.37h-.94z" fill="#05a357"/><path d="M319.26 133.7h3.63v1.19h-3.63z" fill="#156a41"/><path d="M306.57 163.87h1.77v3.54h-1.77z" fill="#05a357"/><path d="M375 135.98V66.16l-35.95 24.78 24.8 52.63zM0 177.4h72.05a46 46 0 0 0-41.79-65.18A45.83 45.83 0 0 0 0 123.59z" fill="#fff"/><path d="M55.6 132.24a23.13 23.13 0 0 0 1.68 2.89 24.54 24.54 0 0 1 4.12 15.4 24 24 0 0 0 0 3.39 24.52 24.52 0 0 1-4.12 15.4 23.87 23.87 0 0 0-1.68 2.89v.06a24.85 24.85 0 0 1-3.34 5.09H62q.57-1.07 1.23-2.07a24.52 24.52 0 0 0 4.12-15.4 24 24 0 0 1 0-3.39 24.52 24.52 0 0 0-4.12-15.4 24.37 24.37 0 0 1-1.67-2.89v-.05a24.55 24.55 0 0 0-7.93-9.27 24.73 24.73 0 0 1 2 3.3z" fill="#156a41"/><path d="M0 177.4h52.24a24.85 24.85 0 0 0 3.34-5.09v-.06a23.87 23.87 0 0 1 1.68-2.89 24.52 24.52 0 0 0 4.12-15.4 24 24 0 0 1 0-3.39 24.54 24.54 0 0 0-4.12-15.4 23.13 23.13 0 0 1-1.68-2.89v-.05a24.73 24.73 0 0 0-2-3.3 23.32 23.32 0 0 0-3.3-2h-.06a25.19 25.19 0 0 1-2.89-1.67A24.52 24.52 0 0 0 32 121.1a27.39 27.39 0 0 1-3.39 0 24.52 24.52 0 0 0-15.4 4.12 24.37 24.37 0 0 1-2.89 1.67h-.05A24.55 24.55 0 0 0 0 136.28z" fill="#05a357"/><path d="M3.2 170.64h4.6v1.79H3.2zm.76-20.9h2.12v2.12H3.96zm18.48-21.66h2.47v6.01h-2.47z" fill="#156a41"/><path d="M24.46 128.08h2.47v6.01h-2.47z" fill="#addec9"/><path d="m45.81 158.423 3.932-3.932 1.457 1.457-3.932 3.932zM7.33 144.94h2.35v2.35H7.33z" fill="#66d19e"/><path d="M48.25 160.99h4.59v1.15h-4.59zm2.298-22.43 2.454 2.453-2.454 2.454-2.454-2.454zm-27.734 19.59 2.871 2.87-1.167 1.167-2.87-2.871zm.236-5.646 2.87 2.87-1.167 1.167-2.87-2.87z" fill="#156a41"/><path d="M36.36 165.9h2.35v4.49h-2.35zm-27.85-3.76h1.38v1.38H8.51zm27.85-31.06h4.25v1.48h-4.25zm-4.03 14.11h4.03v1.28h-4.03zM7.81 133.28H9.2v3.99H7.81z" fill="#06c167"/><path d="M45.93 173.24a1.14 1.14 0 0 1 0-2.28 1.14 1.14 0 0 1 0 2.28zm-13.75-19.97a1.15 1.15 0 0 1-.8.34h-.07a1.19 1.19 0 0 1-.81-.34 1.14 1.14 0 0 1-.33-.8 1.16 1.16 0 0 1 .33-.81 1.2 1.2 0 0 1 .81-.33h.07a1.14 1.14 0 0 1 .8.33 1.17 1.17 0 0 1 .34.81 1.15 1.15 0 0 1-.34.8zm-28.65 10.4a1.09 1.09 0 0 1-.8.33 1.18 1.18 0 0 1-.81-.33l-.07-.07a1.18 1.18 0 0 1-.33-.8 1.16 1.16 0 0 1 .33-.81 1.13 1.13 0 0 1 .81-.33 1.18 1.18 0 0 1 .81.33l.06.07a1.15 1.15 0 0 1 .34.8 1.17 1.17 0 0 1-.34.81zm3.8-4.02a1.14 1.14 0 0 1 0-2.28 1.14 1.14 0 0 1 0 2.28zm16.89 13.94a1.17 1.17 0 0 1-.81.34h-.07a1.16 1.16 0 0 1-.8-.34 1.15 1.15 0 0 1-.34-.8 1.17 1.17 0 0 1 .34-.81 1.2 1.2 0 0 1 .8-.33h.07a1.2 1.2 0 0 1 .81.33 1.12 1.12 0 0 1 .33.81 1.14 1.14 0 0 1-.33.8zm-2.4-34.05a1.14 1.14 0 0 1-1.95-.8v-.07a1.22 1.22 0 0 1 .33-.81 1.18 1.18 0 0 1 .81-.33 1.16 1.16 0 0 1 .81.33 1.22 1.22 0 0 1 .33.81v.07a1.18 1.18 0 0 1-.33.8zm-5.96-5.02a1.14 1.14 0 0 1 0-2.28 1.14 1.14 0 0 1 0 2.28zm32.89-3.02a1.14 1.14 0 0 1 0-2.28 1.14 1.14 0 0 1 0 2.28zm8.71 16.96a1.14 1.14 0 0 1 0-2.28 1.14 1.14 0 0 1 0 2.28z" fill="#ffcf70"/><path d="M63.64 169.26a1.14 1.14 0 0 1 0-2.28 1.14 1.14 0 0 1 0 2.28z" fill="#06c167"/><path d="M58.29 173.24h1.37v1.37h-1.37zm4.59-19.35h3.18v1.34h-3.18z" fill="#0f462d"/><path d="M185 137a6.36 6.36 0 0 0-4.13-7.16 4.1 4.1 0 0 1-1.23-.72 6.36 6.36 0 0 0-8.16 0l-.08.06a3.9 3.9 0 0 1-1.23.72A6.36 6.36 0 0 0 166 137a3.87 3.87 0 0 1 0 1.44 6.34 6.34 0 0 0 4.13 7.16 3.82 3.82 0 0 1 1.24.71 6.4 6.4 0 0 0 8.21 0 3.88 3.88 0 0 1 1.23-.71 6.34 6.34 0 0 0 4.13-7.16A3.87 3.87 0 0 1 185 137z" fill="#bc8b2c"/><path d="m180.49 134-1.2-1.2a3.65 3.65 0 0 1-1.08-2.59v-1.88a6.87 6.87 0 0 0-1.48 0v1.88a3.68 3.68 0 0 1-1.07 2.59l-1.2 1.2a3.65 3.65 0 0 1-2.59 1.07H170v1.49h1.89a3.65 3.65 0 0 1 2.59 1.07l1.2 1.2a3.7 3.7 0 0 1 1.07 2.59v1.89h1.48v-1.89a3.66 3.66 0 0 1 1.08-2.59l1.2-1.2a3.61 3.61 0 0 1 2.58-1.07H185a6.12 6.12 0 0 0 0-.74 6.28 6.28 0 0 0 0-.75h-1.89a3.61 3.61 0 0 1-2.62-1.07z" fill="#ffe3ac"/><circle cx="179.64" cy="140.89" fill="#fff2d9" r=".95"/><circle cx="181.21" cy="139.32" fill="#fff2d9" r=".95"/><circle cx="182.78" cy="137.75" fill="#fff2d9" r=".95"/><circle cx="182.6" cy="133.8" fill="#fff2d9" r=".95"/><circle cx="181.06" cy="132.2" fill="#fff2d9" r=".95"/><circle cx="179.52" cy="130.6" fill="#fff2d9" r=".95"/><circle cx="175.48" cy="130.74" fill="#fff2d9" r=".95"/><circle cx="173.88" cy="132.28" fill="#fff2d9" r=".95"/><circle cx="172.28" cy="133.82" fill="#fff2d9" r=".95"/><circle cx="172.42" cy="137.87" fill="#fff2d9" r=".95"/><circle cx="173.96" cy="139.47" fill="#fff2d9" r=".95"/><circle cx="175.5" cy="141.07" fill="#fff2d9" r=".95"/><path d="M187 135a6.33 6.33 0 0 0-4.13-7.15 3.92 3.92 0 0 1-1.24-.71 6.38 6.38 0 0 0-8.15 0l-.07.07a3.92 3.92 0 0 1-1.24.71A6.34 6.34 0 0 0 168 135a3.93 3.93 0 0 1 0 1.45 6.36 6.36 0 0 0 4.13 7.16 3.87 3.87 0 0 1 1.24.72 6.35 6.35 0 0 0 8.2 0 4.23 4.23 0 0 1 1.23-.72 6.35 6.35 0 0 0 4.13-7.16A4.41 4.41 0 0 1 187 135zm-9.51 7.52a6.8 6.8 0 1 1 6.8-6.79 6.79 6.79 0 0 1-6.82 6.83z" fill="#156a41"/><path d="M185.81 134.83a5.18 5.18 0 0 0-3.36-5.82 5.17 5.17 0 0 1-1.62-.94 5.2 5.2 0 0 0-6.72 0 5.17 5.17 0 0 1-1.62.94 5.18 5.18 0 0 0-3.36 5.82 4.9 4.9 0 0 1 0 1.87 5.17 5.17 0 0 0 3.36 5.82 5.17 5.17 0 0 1 1.62.94 5.18 5.18 0 0 0 6.72 0 5.17 5.17 0 0 1 1.62-.94 5.17 5.17 0 0 0 3.36-5.82 5.34 5.34 0 0 1 0-1.87zm-8.34 7.73a6.8 6.8 0 1 1 6.8-6.79 6.79 6.79 0 0 1-6.8 6.79z" fill="#06c167"/><path d="m213.05 172.73.41-.1-.36-.41a4.11 4.11 0 0 0-.6-.58 6.2 6.2 0 0 0 2.15-.75l.47-.27-.57-.38a6.2 6.2 0 0 0-3.78-1h-.31a17.44 17.44 0 0 1 2.2-.78 5.18 5.18 0 0 0 2.63-1.75l.28-.35-.57-.12a5 5 0 0 0-1.64-.09 7.7 7.7 0 0 0 .78-1.44l.69-1.64a.19.19 0 0 0-.23-.26l-1.73.4a7.88 7.88 0 0 0-1.55.53 5.3 5.3 0 0 0 .19-1.64v-.58l-.4.22a5.14 5.14 0 0 0-2.16 2.29 15.64 15.64 0 0 1-1.14 2c0-.1.05-.19.07-.29a6.08 6.08 0 0 0-.38-3.9l-.28-.63-.34.41a6.11 6.11 0 0 0-1.09 2 4.72 4.72 0 0 0-.48-.69l-.34-.42-.17.38a4.78 4.78 0 0 0-.34 2.91 15.46 15.46 0 0 1 .27 1.79l-.07-.25c0-.11-.07-.22-.11-.34a2.5 2.5 0 0 0-.15-.38 3.37 3.37 0 0 0-1.13-1.35l-.07-.05-.25-.17v.29a3.61 3.61 0 0 0 .06 1.31 3.31 3.31 0 0 0 .28.74c.06.11.11.23.17.34l.06.13a1.47 1.47 0 0 0 .1.22 1.22 1.22 0 0 0 .07.17c0 .06.05.12.07.17a1.8 1.8 0 0 0 .08.21s0 .08 0 .13l.09.24c.11.33.2.66.28 1 .06.29.12.58.16.87v.34a.5.5 0 0 0 .36.43l.32.1c.29.09.57.2.84.31a9.9 9.9 0 0 1 .93.44l.23.12.12.07.19.11.16.1.15.1.2.13.12.08.31.23a3.26 3.26 0 0 0 .92.49 3.34 3.34 0 0 0 1 .18h.29l-.13-.29v-.05a3.32 3.32 0 0 0-1.14-1.35c-.11-.08-.23-.15-.35-.22l-.32-.15-.24-.12a16.5 16.5 0 0 1 1.72.57 4.78 4.78 0 0 0 3 .24z" fill="#156a41"/><path d="m85.79 148.06-.39-.19a3.81 3.81 0 0 1-1-.67 4 4 0 0 1-.75-.95l-.17-.29h.44a4 4 0 0 1 2 .43 3.38 3.38 0 0 1 .41.24l.33.23.25.18c-.48-.5-1-1-1.5-1.43a5.45 5.45 0 0 1-1.75-2.87l-.11-.47.6.14a5.79 5.79 0 0 1 .92.29 6.85 6.85 0 0 1-.41-2.58v-.62l.7.37a7.09 7.09 0 0 1 3.09 3.27c0 .11.09.22.14.32a18.68 18.68 0 0 0-.39-2.58 6.07 6.07 0 0 1 .33-3.67l.21-.48.43.51a5.76 5.76 0 0 1 1 1.61 9.09 9.09 0 0 1 1-1.57l1.28-1.58a.23.23 0 0 1 .39.08l.54 2a9.77 9.77 0 0 1 .31 1.86 5.6 5.6 0 0 1 1.55-1.08l.59-.29v.52a6.14 6.14 0 0 1-1.2 3.51c-.14.18-.26.36-.39.54a3.52 3.52 0 0 1-1.1 1l-7.28 4.27z" fill="#05a357"/><path d="m179.391 163.207 3.547-2.431 2.43 3.546-3.546 2.432z" fill="#ffe3ac"/><path d="m181.17 161.984 3.546-2.431 2.431 3.547-3.546 2.43z" fill="#fff"/><path d="m88.623 163.5 4.3-.098.098 4.298-4.3.099z" fill="#ffe3ac"/><path d="m90.772 163.45 4.299-.098.098 4.3-4.299.098z" fill="#fff"/><path d="M139.42 169.87a6.58 6.58 0 0 0 2.22-8.26 4.15 4.15 0 0 1-.38-1.43 6.62 6.62 0 0 0-5.94-6h-.11a3.94 3.94 0 0 1-1.43-.38 6.58 6.58 0 0 0-8.27 2.21 4.07 4.07 0 0 1-1 1.06 6.57 6.57 0 0 0-2.22 8.26 4.21 4.21 0 0 1 .38 1.44 6.61 6.61 0 0 0 6 6 4.16 4.16 0 0 1 1.42.38 6.56 6.56 0 0 0 8.26-2.21 4.27 4.27 0 0 1 1.07-1.07z" fill="#bc8b2c"/><path d="M137.87 161.91v-1.76a3.78 3.78 0 0 1 1.11-2.68l1.38-1.38a7 7 0 0 0-1.09-1.09l-1.38 1.38a3.78 3.78 0 0 1-2.68 1.11h-1.75a3.78 3.78 0 0 1-2.68-1.11L129.4 155a8.42 8.42 0 0 0-1.09 1.09l1.38 1.38a3.78 3.78 0 0 1 1.11 2.68v1.76a3.82 3.82 0 0 1-1.11 2.68l-1.38 1.41c.16.19.33.38.52.57s.37.35.57.52l1.38-1.39a3.78 3.78 0 0 1 2.68-1.11h1.75a3.78 3.78 0 0 1 2.68 1.11l1.38 1.39.58-.52q.27-.28.51-.57l-1.36-1.41a3.82 3.82 0 0 1-1.13-2.68z" fill="#ffe3ac"/><circle cx="132.17" cy="166.36" fill="#fff2d9" r=".99"/><circle cx="134.47" cy="166.36" fill="#fff2d9" r=".99"/><circle cx="136.77" cy="166.36" fill="#fff2d9" r=".99"/><circle cx="139.53" cy="163.35" fill="#fff2d9" r=".99"/><circle cx="139.57" cy="161.05" fill="#fff2d9" r=".99"/><circle cx="139.62" cy="158.75" fill="#fff2d9" r=".99"/><circle cx="136.55" cy="155.89" fill="#fff2d9" r=".99"/><circle cx="134.26" cy="155.85" fill="#fff2d9" r=".99"/><circle cx="131.96" cy="155.81" fill="#fff2d9" r=".99"/><circle cx="129.1" cy="158.87" fill="#fff2d9" r=".99"/><circle cx="129.06" cy="161.17" fill="#fff2d9" r=".99"/><circle cx="129.01" cy="163.46" fill="#fff2d9" r=".99"/><path d="M141.83 167.46a6.56 6.56 0 0 0 2.17-8.26 4.16 4.16 0 0 1-.38-1.42 6.6 6.6 0 0 0-5.94-6h-.1a4.15 4.15 0 0 1-1.43-.38 6.57 6.57 0 0 0-8.26 2.22 4.07 4.07 0 0 1-1.06 1.05 6.58 6.58 0 0 0-2.21 8.27 4 4 0 0 1 .39 1.43 6.59 6.59 0 0 0 6 6 4.14 4.14 0 0 1 1.43.37 6.56 6.56 0 0 0 8.26-2.21 4.11 4.11 0 0 1 1.13-1.07zM129.36 166a7 7 0 1 1 9.95 0 7 7 0 0 1-9.95 0z" fill="#156a41"/><path d="M141.13 166.45a5.38 5.38 0 0 0 1.8-6.72 5.53 5.53 0 0 1-.51-1.87 5.35 5.35 0 0 0-4.91-4.91 5.35 5.35 0 0 1-1.88-.5 5.35 5.35 0 0 0-6.71 1.8 5.45 5.45 0 0 1-1.38 1.37 5.37 5.37 0 0 0-1.8 6.72 5.53 5.53 0 0 1 .51 1.87 5.36 5.36 0 0 0 4.91 4.92 5.35 5.35 0 0 1 1.88.5 5.35 5.35 0 0 0 6.71-1.8 5.29 5.29 0 0 1 1.38-1.38zm-11.77-.45a7 7 0 1 1 9.95 0 7 7 0 0 1-9.95 0z" fill="#06c167"/><path d="M163.13 168.04h-2.33v-5.91h2.33z" fill="#156a41"/><path d="M161.13 168.04h-2.33v-5.91h2.33zm-51.663-14.963-1.309 1.308-1.308-1.308 1.308-1.308z" fill="#05a357"/><path d="M209.12 152.2h-2.68v-2.68h2.68z" fill="#156a41"/></svg>